<svg width="41" height="42" viewBox="0 0 41 42" fill="none" xmlns="http://www.w3.org/2000/svg">
<g clip-path="url(#clip0_301_4)">
<path d="M32.8961 8.55586C31.815 5.06543 28.5959 2.625 24.9844 2.625C23.9033 2.625 22.8423 2.84033 21.8413 3.26074C20.0436 1.18945 17.4891 0 14.7344 0C9.60938 0 5.41328 4.12207 5.14102 9.30234C2.0524 10.6969 0 13.8223 0 17.3906C0 22.2715 3.88619 26.25 8.66445 26.25H11.9725L16.1998 22.3125H8.64844C5.99625 22.3125 3.84375 20.1059 3.84375 17.3906C3.84375 15.0938 5.37564 13.125 7.55777 12.6164L9.21939 12.2165L9.00078 10.1719C8.99277 10.0734 8.96875 9.95859 8.96875 9.84375C8.96875 6.58301 11.5513 3.9375 14.7344 3.9375C16.7563 3.9375 18.5981 5.01375 19.6496 6.81926L20.721 8.63379L22.4027 7.40332C23.1746 6.86027 24.0635 6.5625 24.9844 6.5625C27.2762 6.5625 29.1789 8.34668 29.4087 10.6952L29.5889 12.4688H32.3516C35.0046 12.4688 37.1562 14.6737 37.1562 17.3906C37.1562 20.1075 35.0021 22.3125 32.3516 22.3125H27.8287L26.2416 26.25H32.342C37.1162 26.25 41 22.2715 41 17.3906C41 12.6984 37.4045 8.84297 32.8961 8.55586ZM27.5469 28.875H22.4147L25.9133 20.1879C26.1435 19.6214 25.9558 18.9673 25.4653 18.6137C24.9774 18.2651 24.3146 18.3036 23.8686 18.7162L12.5936 29.2162C12.2007 29.5803 12.0681 30.1547 12.2582 30.6616C12.4521 31.1637 12.9246 31.5 13.4531 31.5H18.5853L15.0867 40.1871C14.8565 40.7536 15.0442 41.4077 15.5346 41.7613C15.7594 41.918 15.9436 42 16.2719 42C16.5822 42 16.89 41.8847 17.1327 41.6591L28.4077 31.1591C28.8006 30.795 28.9332 30.2206 28.7431 29.7137C28.5479 29.2113 28.0754 28.875 27.5469 28.875Z" fill="#5451EE"/>
</g>
<defs>
<clipPath id="clip0_301_4">
<rect width="41" height="42" fill="white"/>
</clipPath>
</defs>
</svg>
